<svg width="10" height="11" viewBox="0 0 40 41" fill="none" xmlns="http://www.w3.org/2000/svg">
<path d="M7.66667 13.3333C7.66667 6.52182 13.1885 1 20 1C26.8115 1 32.3333 6.52182 32.3333 13.3333V24.6688C32.3333 25.1103 32.4836 25.5386 32.7594 25.8833L33.5402 25.2586L32.7594 25.8833L35.2375 28.9811C36.3183 30.332 35.3565 32.3333 33.6264 32.3333H6.37364C4.64353 32.3333 3.68166 30.332 4.76245 28.9811L7.24062 25.8833L6.45975 25.2586L7.24062 25.8833C7.51641 25.5386 7.66667 25.1103 7.66667 24.6688V13.3333Z" stroke="#CE6A70" stroke-width="2"/>
<path d="M20.1236 32.4979C21.3876 32.4981 22.8676 32.4984 25.5867 32.4983C25.3812 33.8568 24.7825 35.3287 23.9034 36.543C22.7925 38.0774 21.3894 39.0015 20 39.0015C18.6105 39.0015 17.2067 38.0772 16.0952 36.5428C15.2155 35.3284 14.6163 33.8563 14.4107 32.498C17.3048 32.4973 18.5459 32.4975 20.1236 32.4979Z" stroke="#fd4b30" stroke-width="2"/>
</svg>
