<svg width="24" height="24" viewBox="0 0 24 24" fill="none" xmlns="http://www.w3.org/2000/svg">
<path d="M10.7101 1.57355C11.3259 0.808816 12.6741 0.808816 13.2899 1.57355L14.0464 0.964411L13.2899 1.57355L15.7751 4.6598C16.1726 5.15345 16.7617 5.44208 17.3742 5.49634L21.6147 5.87199C22.8086 5.97775 23.206 6.97501 22.8799 7.61824L21.1245 11.0801C20.8296 11.6617 20.8296 12.3383 21.1245 12.9199L22.8799 16.3818C23.206 17.025 22.8086 18.0222 21.6147 18.128L17.3742 18.5037C16.7617 18.5579 16.1726 18.8466 15.7751 19.3402L13.2899 22.4264C12.6741 23.1912 11.3259 23.1912 10.7101 22.4264L8.22491 19.3402C7.82741 18.8466 7.23831 18.5579 6.6258 18.5037L2.38527 18.128C1.19143 18.0222 0.793997 17.025 1.12015 16.3818L2.8755 12.9199C3.17036 12.3383 3.17036 11.6617 2.8755 11.0801L1.12014 7.61824C0.793998 6.97501 1.19143 5.97776 2.38527 5.87199L6.6258 5.49634C7.23831 5.44207 7.82741 5.15344 8.22492 4.6598L10.7101 1.57355L9.93122 0.94637L10.7101 1.57355Z" stroke="currentColor" stroke-width="2"/>
<circle cx="12" cy="12" r="3" stroke="currentColor" stroke-width="2"/>
</svg>
